# xmcd
#
# Track frame offsets:
#	150
#	12525
#	25822
#	37840
#	50137
#	60677
#	72837
#	86135
#	98165
#	111135
#	122125
#	131460
#	140192
#	153610
#	165927
#	175527
#	189330
#	199875
#	209065
#	218192
#	228560
#	238225
#	247627
#	256995
#	267892
#	278725
#	289265
#	301045
#	312382
#	323395
#	332765
#
# Disc length: 4573 seconds
#
# Revision: 1
# Processed by: cddbd v1.5.2PL0 Copyright (c) Steve Scherf et al.
# Submitted via: EZCDAudioConverter 1.0.8.1
#
DISCID=c311db1f
DTITLE=Slim Whitman - Rose Marie - Disc 4 of 6
DYEAR=1996
DGENRE=Country
TTITLE0=Smoke Signals
TTITLE1=Among My Souvenirs
TTITLE2=Tree In The Meadow
TTITLE3=At The Close Of A Long, Long Day
TTITLE4=I Must Have Been Blind
TTITLE5=You're The Only One
TTITLE6=Riding The Range For Jesus
TTITLE7=Roundup In Glory
TTITLE8=At the End Of Nowhere
TTITLE9=Careless Love
TTITLE10=Hawaiian Cowboy
TTITLE11=Warm, Warm Lips
TTITLE12=I'll Take You Home Again, Kathleen
TTITLE13=Since You've Gone
TTITLE14=An Amateur In Love
TTITLE15=Lovesick Blues
TTITLE16=Many Times
TTITLE17=Forever
TTITLE18=Unchain My Heart
TTITLE19=Once In A Lifetime
TTITLE20=Tormented
TTITLE21=Candy Kisses
TTITLE22=Hush-A-Bye
TTITLE23=Careless Hands
TTITLE24=A Very Precious Love
TTITLE25=Put Your Trust In Me
TTITLE26=When It's Springtime In The Rockies
TTITLE27=At the End Of Nowhere
TTITLE28=Mexicali Rose
TTITLE29=My Best To You
TTITLE30=Cowpoke
EXTD=
EXTT0=
EXTT1=
EXTT2=
EXTT3=
EXTT4=
EXTT5=
EXTT6=
EXTT7=
EXTT8=
EXTT9=
EXTT10=
EXTT11=
EXTT12=
EXTT13=
EXTT14=
EXTT15=
EXTT16=
EXTT17=
EXTT18=
EXTT19=
EXTT20=
EXTT21=
EXTT22=
EXTT23=
EXTT24=
EXTT25=
EXTT26=
EXTT27=
EXTT28=
EXTT29=
EXTT30=
PLAYORDER=
